<mxfile host="app.diagrams.net" modified="2023-11-12T04:27:26.794Z" agent="Mozilla/5.0 (X11; Linux x86_64; rv:102.0) Gecko/20100101 Firefox/102.0" version="22.1.0" etag="dn5PsINxtX2zTIXEHpK-" type="github">
  <diagram name="Page-1" id="GTl1mjmFZmGKstLTXMeD">
    <mxGraphModel>
      <root>
        <mxCell id="0" />
        <mxCell id="1" parent="0" />
      </root>
    </mxGraphModel>
  </diagram>
</mxfile>
